<mxfile host="app.diagrams.net" modified="2021-04-16T09:12:53.974Z" agent="5.0 (Windows NT 10.0; Win64; x64) AppleWebKit/537.36 (KHTML, like Gecko) Chrome/77.0.3865.120 Safari/537.36" etag="CbxigqVHWnhHk2RhCaXG" version="14.5.8" type="github">
  <diagram id="8cclOKOWmr6MBxCDymrc" name="第 1 页">
    <mxGraphModel dx="865" dy="441" grid="1" gridSize="10" guides="1" tooltips="1" connect="1" arrows="1" fold="1" page="1" pageScale="1" pageWidth="827" pageHeight="1169" math="0" shadow="0">
      <root>
        <mxCell id="0" />
        <mxCell id="1" parent="0" />
      </root>
    </mxGraphModel>
  </diagram>
</mxfile>
